<svg xmlns="http://www.w3.org/2000/svg" xmlns:xlink="http://www.w3.org/1999/xlink" width="859pt" height="514pt" viewBox="0.00 0.00 859.00 514.00">
<g id="graph0" class="graph" transform="scale(1 1) rotate(0) translate(4 509.8)">
<title>B1_Figure1</title>
<polygon fill="white" stroke="none" points="-4,4 -4,-509.8 854.8,-509.8 854.8,4 -4,4"/>
<text xml:space="preserve" text-anchor="middle" x="227.5" y="-489.2" font-family="Times,serif" font-size="14.00">Figure B1-1. Case B1: Info Fixation Under Default Configuration (Context B)</text>
<g id="clust3" class="cluster">
<title>cluster_legend</title>
<polygon fill="none" stroke="gray" points="8,-234 8,-473 224.12,-473 224.12,-234 8,-234"/>
<text xml:space="preserve" text-anchor="middle" x="36.99" y="-456.4" font-family="Times,serif" font-size="14.00">Legend</text>
</g>
<!-- S6 -->
<g id="node1" class="node">
<title>S6</title>
<polygon fill="none" stroke="black" points="158.22,-44 73.9,-44 73.9,0 158.22,0 158.22,-44"/>
<text xml:space="preserve" text-anchor="middle" x="116.06" y="-31" font-family="Times,serif" font-size="10.00">S6</text>
<text xml:space="preserve" text-anchor="middle" x="116.06" y="-19" font-family="Times,serif" font-size="10.00">Info (non-DISP) </text>
<text xml:space="preserve" text-anchor="middle" x="116.06" y="-7" font-family="Times,serif" font-size="10.00">open</text>
</g>
<!-- S7 -->
<g id="node2" class="node">
<title>S7</title>
<polygon fill="none" stroke="black" points="156.97,-98 75.15,-98 75.15,-62 156.97,-62 156.97,-98"/>
<text xml:space="preserve" text-anchor="middle" x="116.06" y="-83" font-family="Times,serif" font-size="10.00">S7</text>
<text xml:space="preserve" text-anchor="middle" x="116.06" y="-71" font-family="Times,serif" font-size="10.00">Info (non-DISP)</text>
</g>
<!-- S1 -->
<g id="node3" class="node">
<title>S1</title>
<polygon fill="none" stroke="black" points="155.02,-152 77.1,-152 77.1,-116 155.02,-116 155.02,-152"/>
<text xml:space="preserve" text-anchor="middle" x="116.06" y="-137" font-family="Times,serif" font-size="10.00">S1</text>
<text xml:space="preserve" text-anchor="middle" x="116.06" y="-125" font-family="Times,serif" font-size="10.00">LiveView open</text>
</g>
<!-- S17 -->
<g id="node4" class="node">
<title>S17</title>
<polygon fill="none" stroke="black" points="144.05,-224 88.07,-224 88.07,-188 144.05,-188 144.05,-224"/>
<text xml:space="preserve" text-anchor="middle" x="116.06" y="-209" font-family="Times,serif" font-size="10.00">S17</text>
<text xml:space="preserve" text-anchor="middle" x="116.06" y="-197" font-family="Times,serif" font-size="10.00">LiveView</text>
</g>
<!-- S1&#45;&gt;S17 -->
<g id="edge2" class="edge">
<title>S1-&gt;S17</title>
<path fill="none" stroke="#546e7a" d="M93.92,-152.28C87.17,-160.73 85.25,-169.17 88.15,-177.62"/>
<polygon fill="#546e7a" stroke="#546e7a" points="85.05,-179.25 93.02,-186.22 91.14,-175.79 85.05,-179.25"/>
<text xml:space="preserve" text-anchor="middle" x="56.71" y="-157.1" font-family="Times,serif" font-size="14.00">close LCD</text>
</g>
<!-- S25 -->
<g id="node6" class="node">
<title>S25</title>
<polygon fill="none" stroke="black" points="370.44,-119 310.83,-119 310.83,-75 370.44,-75 370.44,-119"/>
<text xml:space="preserve" text-anchor="middle" x="340.64" y="-106" font-family="Times,serif" font-size="10.00">S25</text>
<text xml:space="preserve" text-anchor="middle" x="340.64" y="-94" font-family="Times,serif" font-size="10.00">Info (DP5)</text>
<text xml:space="preserve" text-anchor="middle" x="340.64" y="-82" font-family="Times,serif" font-size="10.00">open</text>
</g>
<!-- S1&#45;&gt;S25 -->
<g id="edge6" class="edge">
<title>S1-&gt;S25</title>
<path fill="none" stroke="#fb8c00" d="M155.32,-127.64C195.46,-120.97 258.27,-110.53 299.2,-103.72"/>
<polygon fill="#fb8c00" stroke="#fb8c00" points="299.6,-107.2 308.89,-102.11 298.45,-100.3 299.6,-107.2"/>
<text xml:space="preserve" text-anchor="middle" x="263.48" y="-118.59" font-family="Times,serif" font-size="14.00">DISP</text>
</g>
<!-- S17&#45;&gt;S1 -->
<g id="edge1" class="edge">
<title>S17-&gt;S1</title>
<path fill="none" stroke="#546e7a" d="M138.35,-187.53C145.03,-179.09 146.88,-170.64 143.91,-162.2"/>
<polygon fill="#546e7a" stroke="#546e7a" points="146.98,-160.51 138.96,-153.59 140.91,-164.01 146.98,-160.51"/>
<text xml:space="preserve" text-anchor="middle" x="174.64" y="-157.12" font-family="Times,serif" font-size="14.00">open LCD</text>
</g>
<!-- S21 -->
<g id="node5" class="node">
<title>S21</title>
<polygon fill="none" stroke="black" points="370.44,-264 310.83,-264 310.83,-228 370.44,-228 370.44,-264"/>
<text xml:space="preserve" text-anchor="middle" x="340.64" y="-249" font-family="Times,serif" font-size="10.00">S21</text>
<text xml:space="preserve" text-anchor="middle" x="340.64" y="-237" font-family="Times,serif" font-size="10.00">Info (DP5)</text>
</g>
<!-- S17&#45;&gt;S21 -->
<g id="edge3" class="edge">
<title>S17-&gt;S21</title>
<path fill="none" stroke="orange" d="M144.35,-210.9C183.12,-217.87 254.39,-230.68 299.27,-238.75"/>
<polygon fill="orange" stroke="orange" points="298.4,-242.15 308.86,-240.47 299.64,-235.26 298.4,-242.15"/>
<text xml:space="preserve" text-anchor="middle" x="263.48" y="-241.56" font-family="Times,serif" font-size="14.00">DISP</text>
</g>
<!-- S21&#45;&gt;S25 -->
<g id="edge4" class="edge">
<title>S21-&gt;S25</title>
<path fill="none" stroke="orange" d="M310.47,-235.1C276.94,-221.11 229.63,-194.64 246.98,-161.6 258.32,-140.01 280.51,-124.21 300.44,-113.65"/>
<polygon fill="orange" stroke="orange" points="301.84,-116.86 309.24,-109.28 298.73,-110.6 301.84,-116.86"/>
<text xml:space="preserve" text-anchor="middle" x="263.48" y="-165.8" font-family="Times,serif" font-size="14.00">open LCD</text>
</g>
<!-- S37 -->
<g id="node7" class="node">
<title>S37</title>
<polygon fill="none" stroke="black" points="543.66,-239 489.66,-239 489.66,-203 543.66,-203 543.66,-239"/>
<text xml:space="preserve" text-anchor="middle" x="516.66" y="-224" font-family="Times,serif" font-size="10.00">S37</text>
<text xml:space="preserve" text-anchor="middle" x="516.66" y="-212" font-family="Times,serif" font-size="10.00">Fixed</text>
</g>
<!-- S21&#45;&gt;S37 -->
<g id="edge8" class="edge">
<title>S21-&gt;S37</title>
<path fill="none" stroke="red" d="M370.88,-232.53C376.59,-230.4 382.62,-228.47 388.44,-227.2 418.09,-220.71 452.52,-219.4 478.08,-219.58"/>
<polygon fill="red" stroke="red" points="477.93,-223.08 487.98,-219.74 478.04,-216.08 477.93,-223.08"/>
<text xml:space="preserve" text-anchor="middle" x="425.18" y="-231.4" font-family="Times,serif" font-size="14.00">half-press</text>
</g>
<!-- S21&#45;&gt;S37 -->
<g id="edge11" class="edge">
<title>S21-&gt;S37</title>
<path fill="none" stroke="red" d="M370.67,-248.62C395.25,-250.11 431.28,-250.55 461.92,-244 467.54,-242.8 473.31,-241 478.88,-238.93"/>
<polygon fill="red" stroke="red" points="479.93,-242.29 487.87,-235.27 477.28,-235.8 479.93,-242.29"/>
<text xml:space="preserve" text-anchor="middle" x="425.18" y="-253.74" font-family="Times,serif" font-size="14.00">power toggle</text>
</g>
<!-- S10 -->
<g id="node9" class="node">
<title>S10</title>
<polygon fill="none" stroke="black" points="686.17,-286 632.17,-286 632.17,-250 686.17,-250 686.17,-286"/>
<text xml:space="preserve" text-anchor="middle" x="659.17" y="-271" font-family="Times,serif" font-size="10.00">S10</text>
<text xml:space="preserve" text-anchor="middle" x="659.17" y="-259" font-family="Times,serif" font-size="10.00">Playback</text>
</g>
<!-- S21&#45;&gt;S10 -->
<g id="edge21" class="edge">
<title>S21-&gt;S10</title>
<path fill="none" stroke="orange" d="M370.71,-262.78C376.44,-265.55 382.52,-268.12 388.44,-270 466.55,-294.81 489.56,-288.54 571.4,-293 590.38,-294.03 595.79,-297.86 614.17,-293 616.75,-292.32 619.34,-291.45 621.89,-290.44"/>
<polygon fill="orange" stroke="orange" points="623.17,-293.71 630.76,-286.31 620.22,-287.36 623.17,-293.71"/>
<text xml:space="preserve" text-anchor="middle" x="516.66" y="-296.33" font-family="Times,serif" font-size="14.00">press ▶</text>
</g>
<!-- S25&#45;&gt;S21 -->
<g id="edge5" class="edge">
<title>S25-&gt;S21</title>
<path fill="none" stroke="orange" d="M310.53,-117.38C282.94,-138.72 248.99,-173.44 267.48,-205 274.8,-217.49 287.46,-226.46 300.22,-232.77"/>
<polygon fill="orange" stroke="orange" points="298.43,-235.8 308.99,-236.65 301.27,-229.4 298.43,-235.8"/>
<text xml:space="preserve" text-anchor="middle" x="241.56" y="-144.8" font-family="Times,serif" font-size="14.00">close LCD</text>
</g>
<!-- S38 -->
<g id="node8" class="node">
<title>S38</title>
<polygon fill="none" stroke="black" points="686.17,-150 632.17,-150 632.17,-106 686.17,-106 686.17,-150"/>
<text xml:space="preserve" text-anchor="middle" x="659.17" y="-137" font-family="Times,serif" font-size="10.00">S38</text>
<text xml:space="preserve" text-anchor="middle" x="659.17" y="-125" font-family="Times,serif" font-size="10.00">Fixed </text>
<text xml:space="preserve" text-anchor="middle" x="659.17" y="-113" font-family="Times,serif" font-size="10.00">open</text>
</g>
<!-- S25&#45;&gt;S38 -->
<g id="edge7" class="edge">
<title>S25-&gt;S38</title>
<path fill="none" stroke="red" d="M370.87,-85.83C411.83,-71.65 488.55,-50.48 553.4,-63.2 582.02,-68.82 589.49,-72.44 614.17,-88 618.96,-91.02 623.72,-94.58 628.23,-98.32"/>
<polygon fill="red" stroke="red" points="625.6,-100.66 635.43,-104.61 630.21,-95.39 625.6,-100.66"/>
<text xml:space="preserve" text-anchor="middle" x="516.66" y="-67.4" font-family="Times,serif" font-size="14.00">half-press</text>
</g>
<!-- S25&#45;&gt;S38 -->
<g id="edge12" class="edge">
<title>S25-&gt;S38</title>
<path fill="none" stroke="red" d="M370.77,-99.44C411.62,-102.91 488.21,-109.57 553.4,-116.2 575.67,-118.46 600.58,-121.26 620.52,-123.56"/>
<polygon fill="red" stroke="red" points="620.08,-127.03 630.42,-124.71 620.89,-120.08 620.08,-127.03"/>
<text xml:space="preserve" text-anchor="middle" x="516.66" y="-120.4" font-family="Times,serif" font-size="14.00">power toggle</text>
</g>
<!-- S11 -->
<g id="node10" class="node">
<title>S11</title>
<polygon fill="none" stroke="black" points="850.8,-97 795.65,-97 795.65,-53 850.8,-53 850.8,-97"/>
<text xml:space="preserve" text-anchor="middle" x="823.23" y="-84" font-family="Times,serif" font-size="10.00">S11</text>
<text xml:space="preserve" text-anchor="middle" x="823.23" y="-72" font-family="Times,serif" font-size="10.00">Playback </text>
<text xml:space="preserve" text-anchor="middle" x="823.23" y="-60" font-family="Times,serif" font-size="10.00">open</text>
</g>
<!-- S25&#45;&gt;S11 -->
<g id="edge22" class="edge">
<title>S25-&gt;S11</title>
<path fill="none" stroke="orange" d="M363.09,-74.81C370.49,-68.55 379.24,-62.49 388.44,-59 519.74,-9.11 563.74,-48.11 704.17,-45 736.82,-44.28 746.41,-35.47 777.65,-45 780.21,-45.78 782.75,-46.76 785.26,-47.89"/>
<polygon fill="orange" stroke="orange" points="783.43,-50.88 793.9,-52.51 786.72,-44.71 783.43,-50.88"/>
<text xml:space="preserve" text-anchor="middle" x="560.77" y="-25.58" font-family="Times,serif" font-size="14.00">press ▶</text>
</g>
<!-- S37&#45;&gt;S17 -->
<g id="edge23" class="edge">
<title>S37-&gt;S17</title>
<path fill="none" stroke="blue" stroke-width="2" d="M489.26,-216.54C460.23,-211.89 412.17,-204.89 370.44,-202.2 295.23,-197.35 207.23,-200.69 157.22,-203.44"/>
<polygon fill="blue" stroke="blue" stroke-width="2" points="157.27,-199.93 147.49,-203.99 157.67,-206.91 157.27,-199.93"/>
<text xml:space="preserve" text-anchor="middle" x="340.64" y="-206.4" font-family="Times,serif" font-size="14.00">DISP</text>
</g>
<!-- S37&#45;&gt;S37 -->
<g id="edge10" class="edge">
<title>S37-&gt;S37</title>
<path fill="none" stroke="red" stroke-width="2" d="M502.89,-239.15C500.77,-248.54 505.36,-257 516.66,-257 522.13,-257 526.03,-255.01 528.36,-251.9"/>
<polygon fill="red" stroke="red" stroke-width="2" points="531.79,-252.57 529.94,-242.14 524.88,-251.45 531.79,-252.57"/>
<text xml:space="preserve" text-anchor="middle" x="516.66" y="-261.2" font-family="Times,serif" font-size="14.00">half-press</text>
</g>
<!-- S37&#45;&gt;S38 -->
<g id="edge13" class="edge">
<title>S37-&gt;S38</title>
<path fill="none" stroke="red" d="M535.87,-202.59C555.33,-187.69 587.04,-167.1 614.17,-149 616.84,-147.22 619.59,-145.37 622.36,-143.53"/>
<polygon fill="red" stroke="red" points="624,-146.64 630.44,-138.22 620.16,-140.78 624,-146.64"/>
<text xml:space="preserve" text-anchor="middle" x="553.91" y="-156.94" font-family="Times,serif" font-size="14.00">open LCD</text>
</g>
<!-- S37&#45;&gt;S10 -->
<g id="edge16" class="edge">
<title>S37-&gt;S10</title>
<path fill="none" stroke="orange" d="M544.15,-227.82C563.69,-233.08 590.83,-240.84 614.17,-249.2 616.52,-250.04 618.93,-250.95 621.34,-251.89"/>
<polygon fill="orange" stroke="orange" points="619.86,-255.06 630.45,-255.58 622.5,-248.58 619.86,-255.06"/>
<text xml:space="preserve" text-anchor="middle" x="592.78" y="-253.4" font-family="Times,serif" font-size="14.00">press ▶</text>
</g>
<!-- S38&#45;&gt;S1 -->
<g id="edge24" class="edge">
<title>S38-&gt;S1</title>
<path fill="none" stroke="blue" stroke-width="2" d="M631.69,-131.49C625.92,-132.12 619.85,-132.67 614.17,-133 451.53,-142.38 258.46,-138.47 168.26,-135.77"/>
<polygon fill="blue" stroke="blue" stroke-width="2" points="168.59,-132.28 158.49,-135.47 168.37,-139.27 168.59,-132.28"/>
<text xml:space="preserve" text-anchor="middle" x="425.18" y="-143.11" font-family="Times,serif" font-size="14.00">DISP</text>
</g>
<!-- S38&#45;&gt;S37 -->
<g id="edge14" class="edge">
<title>S38-&gt;S37</title>
<path fill="none" stroke="red" d="M638.08,-150.26C630.59,-155.94 622.01,-161.77 614.17,-167 594.32,-180.24 572.02,-194.82 553.86,-205.7"/>
<polygon fill="red" stroke="red" points="552.14,-202.66 545.27,-210.73 555.67,-208.7 552.14,-202.66"/>
<text xml:space="preserve" text-anchor="middle" x="561.51" y="-186.08" font-family="Times,serif" font-size="14.00">close LCD</text>
</g>
<!-- S38&#45;&gt;S38 -->
<g id="edge9" class="edge">
<title>S38-&gt;S38</title>
<path fill="none" stroke="red" stroke-width="2" d="M646.87,-150.21C645.86,-159.8 649.96,-168 659.17,-168 663.77,-168 667.1,-165.95 669.15,-162.7"/>
<polygon fill="red" stroke="red" stroke-width="2" points="672.53,-163.66 670.92,-153.19 665.65,-162.38 672.53,-163.66"/>
<text xml:space="preserve" text-anchor="middle" x="659.17" y="-172.2" font-family="Times,serif" font-size="14.00">half-press</text>
</g>
<!-- S38&#45;&gt;S11 -->
<g id="edge19" class="edge">
<title>S38-&gt;S11</title>
<path fill="none" stroke="orange" d="M686.52,-128.86C711.11,-128.71 748.32,-125.98 777.65,-113 782.86,-110.69 787.93,-107.58 792.67,-104.11"/>
<polygon fill="orange" stroke="orange" points="794.55,-107.09 800.14,-98.09 790.16,-101.64 794.55,-107.09"/>
<text xml:space="preserve" text-anchor="middle" x="740.91" y="-132.37" font-family="Times,serif" font-size="14.00">press ▶</text>
</g>
<!-- S10&#45;&gt;S37 -->
<g id="edge15" class="edge">
<title>S10-&gt;S37</title>
<path fill="none" stroke="red" d="M642.45,-249.54C634.77,-241.81 624.87,-233.57 614.17,-229 595.91,-221.19 573.95,-218.89 555.6,-218.67"/>
<polygon fill="red" stroke="red" points="555.61,-215.17 545.64,-218.77 555.68,-222.17 555.61,-215.17"/>
<text xml:space="preserve" text-anchor="middle" x="632.46" y="-210.48" font-family="Times,serif" font-size="14.00">power toggle</text>
</g>
<!-- S10&#45;&gt;S37 -->
<g id="edge17" class="edge">
<title>S10-&gt;S37</title>
<path fill="none" stroke="red" d="M631.88,-271.82C614.21,-273.34 590.72,-273.27 571.4,-266 560.58,-261.93 550.39,-254.68 541.85,-247.18"/>
<polygon fill="red" stroke="red" points="544.37,-244.74 534.7,-240.42 539.57,-249.83 544.37,-244.74"/>
<text xml:space="preserve" text-anchor="middle" x="592.78" y="-276.8" font-family="Times,serif" font-size="14.00">exit ▶</text>
</g>
<!-- S11&#45;&gt;S38 -->
<g id="edge18" class="edge">
<title>S11-&gt;S38</title>
<path fill="none" stroke="red" d="M795.47,-76.4C770.89,-78.47 733.88,-83.58 704.17,-96.2 701.51,-97.33 698.86,-98.64 696.25,-100.08"/>
<polygon fill="red" stroke="red" points="694.44,-97.09 687.77,-105.32 698.12,-103.04 694.44,-97.09"/>
<text xml:space="preserve" text-anchor="middle" x="740.91" y="-100.4" font-family="Times,serif" font-size="14.00">power toggle</text>
</g>
<!-- S11&#45;&gt;S38 -->
<g id="edge20" class="edge">
<title>S11-&gt;S38</title>
<path fill="none" stroke="red" d="M795.2,-61.78C770.09,-51.54 732.43,-41.49 704.17,-57.2 689.31,-65.46 678.82,-81.05 671.82,-95.5"/>
<polygon fill="red" stroke="red" points="668.77,-93.76 667.94,-104.32 675.17,-96.58 668.77,-93.76"/>
<text xml:space="preserve" text-anchor="middle" x="740.91" y="-61.4" font-family="Times,serif" font-size="14.00">exit ▶</text>
</g>
<!-- key_base -->
<g id="node11" class="node">
<title>key_base</title>
<text xml:space="preserve" text-anchor="middle" x="116.06" y="-257" font-family="Times,serif" font-size="10.00">gray: normal LCD open/close</text>
</g>
<!-- key_entry -->
<g id="node12" class="node">
<title>key_entry</title>
<text xml:space="preserve" text-anchor="middle" x="116.06" y="-311" font-family="Times,serif" font-size="10.00">orange: explicit Info / display-mode transition</text>
</g>
<!-- key_fixed -->
<g id="node13" class="node">
<title>key_fixed</title>
<text xml:space="preserve" text-anchor="middle" x="116.06" y="-365" font-family="Times,serif" font-size="10.00">red: persistent fixation</text>
</g>
<!-- key_recovery -->
<g id="node14" class="node">
<title>key_recovery</title>
<text xml:space="preserve" text-anchor="middle" x="116.06" y="-419" font-family="Times,serif" font-size="10.00">blue: recovery via DISP</text>
</g>
</g>
</svg>